<?xml version="1.0" encoding="utf-8"?>
<!-- Generator: Adobe Illustrator 26.0.3, SVG Export Plug-In . SVG Version: 6.00 Build 0)  -->
<svg version="1.1" id="Layer_1" xmlns="http://www.w3.org/2000/svg" xmlns:xlink="http://www.w3.org/1999/xlink" x="0px" y="0px"
	 viewBox="0 0 383.9 145.6" style="enable-background:new 0 0 383.9 145.6;" xml:space="preserve">
<style type="text/css">
	.st0{fill:none;stroke:#002029;stroke-width:1.78;stroke-miterlimit:10;}
	.st1{fill:#002029;}
</style>
<g id="Layer_2_00000088835646442223036270000017740454086019748281_">
	<g id="Layer_1-2">
		<path class="st0" d="M36.5,142.9H4.9c-0.9,0-1.3-0.8-1.3-1.9c0-1.4,0.8-9.4,0.8-15.1V99.7c0-5.7-0.5-11.4-1.7-14
			c0-1.7,1.9-4,5.6-4h28.9c9,0,18.6,3.9,18.6,12.9c0,11.1-8.6,15.5-14.5,16.8c7.7,1.6,16.1,5.1,16.1,15.6
			C57.4,137.8,46.7,142.9,36.5,142.9z M29.7,108.9c3.3,0,5.3-2.8,5.3-8.7c0-4.4-0.7-8.7-5.4-8.7L29.7,108.9z M29.7,133.9
			c3.7,0,5.9-3.4,5.9-9.8c0-6.2-1.9-9.3-5.9-9.4V133.9z"/>
		<path class="st0" d="M80,81.6c8.8,0,17,4.7,19.2,9.4c1.3,2.8,13.8,41.5,14.9,43.9c0.6,1.9,2.5,3.9,2.5,5.9s-4.1,2.9-13.5,2.9
			c-4.1,0.1-8.3-0.1-12.4-0.5c-1.6-0.3-2.1-0.7-2.1-1.7c0-0.5,0.3-1.3,0.3-2c0-0.5-0.1-1.1-0.2-1.6l-1.5-4.8H74.3L73,137
			c-0.3,0.9-0.5,1.8-0.5,2.7c0,0.7,0.2,1.9,0.2,2.3c0,0.6-0.9,1.3-1.7,1.4c-1.9,0.3-3.9,0.4-5.8,0.4c-2.3,0.1-4.5,0-6.8-0.3
			c-0.7-0.1-1.3-0.4-1.3-1s0.6-1.2,1.2-2.7C59,138,73,96.2,73.4,94.5c0.7-2.6,1.3-5.3,1.6-7.9C75.3,84.1,77.2,81.6,80,81.6z
			 M80.8,107.2l-3.7,17.2h7.1L80.8,107.2z"/>
		<path class="st0" d="M140,125.3c0,8.3,1.1,14.3,1.1,16c0,0.8-0.7,1.2-1.7,1.5c-2.8,0.6-5.6,0.9-8.5,0.9c-3,0-6-0.3-9-0.9
			c-0.8-0.2-1.2-0.8-1.2-1.9c0-1.4,1-9.5,1-15.3v-23.4c0-5.8-1.1-11.3-2.6-14c0-3.5,3.7-6.7,9.6-6.7c6,0,10,1.6,13,4.6l18,21.1v-5.1
			c0-5.8-0.7-11.3-2.3-14c0-3.5,3.4-6.7,10.4-6.7c4.4,0.3,8.5,1.9,11.9,4.6c-1.1,3.3-1.7,8.3-1.7,15v38.8c0,2.2-2.7,3.8-6.9,3.8
			c-3.1,0.1-6.2-0.5-9-1.8L140,119.7V125.3z"/>
		<path class="st0" d="M211.5,129.9c4.4,0,8.6-4.5,11-7.9c0.5-0.3,1-0.5,1.6-0.5c1.8,0,3.2,6.1,3.2,11.4c0,6.3-3.7,11-9.1,11
			c-5.1,0-12.7-0.9-16.8-0.9h-13.9c-1.3,0-2.3-0.6-2.3-1.5c0-3,1-3,1-6.4V98c0-3.6-1.4-7.7-2.9-9c0-5.3,5.4-8.2,13.5-8.2
			c7.2,0,13.5,1.8,16.3,4.6c-1.2,1.5-1.6,4.6-1.6,8.2L211.5,129.9z"/>
		<path class="st0" d="M249.4,81.6c8.8,0,17,4.7,19.3,9.4c1.3,2.8,13.8,41.5,14.9,43.9c0.6,1.9,2.5,3.9,2.5,5.9s-4.1,2.9-13.5,2.9
			c-4.1,0.1-8.3-0.1-12.4-0.5c-1.6-0.3-2.1-0.7-2.1-1.7c0-0.5,0.3-1.3,0.3-2c0-0.5-0.1-1.1-0.2-1.6l-1.5-4.8h-12.8l-1.2,3.9
			c-0.3,0.9-0.5,1.8-0.5,2.7c0,0.7,0.2,1.9,0.2,2.3c0,0.6-0.9,1.3-1.7,1.4c-1.9,0.3-3.9,0.4-5.8,0.4c-2.3,0.1-4.5,0-6.8-0.3
			c-0.7-0.1-1.3-0.4-1.3-1s0.6-1.2,1.2-2.7c0.7-1.8,14.6-43.7,15.1-45.3c0.7-2.6,1.3-5.3,1.6-7.9C244.7,84.1,246.7,81.6,249.4,81.6z
			 M250.2,107.2l-3.6,17.2h7.1L250.2,107.2z"/>
		<path class="st0" d="M348,92c0,7-7.4,15-16,21.8c6.3,6.8,16.8,20,16.8,23.8c0,4.4-9.9,7.1-19.8,7.1c-2.4,0-4.6-1.4-5.6-3.6
			c-1-3.1-4.2-11.9-7-16.8c-0.1,0-0.1,0.1-0.2,0.1v0.8c0,8.3,1.2,14.3,1.2,16c0,0.8-0.8,1.2-1.7,1.5c-8.2,1.2-16.4,1.2-24.6,0
			c-0.8-0.2-1.2-0.8-1.2-1.9c0-1.4,1-9.5,1-15.3v-24.2c0-5.8-0.8-10.5-2.3-13.2c0-3.5,3.6-6.7,14.1-6.7c5.2,0,12.3,2,15.3,4.6
			c-1.1,3.3-1.7,7.4-1.7,14.1v9.3c3.4-5.2,6.7-12.9,6.7-15.7c0-4-0.6-5.9-2-7.4c0-2.5,7.2-4.9,13-4.9C341.3,81.6,348,85.5,348,92z"
			/>
		<path class="st0" d="M381.1,125.3c0,8.3,1.1,14.3,1.1,16c0,0.8-0.9,1.3-1.7,1.5c-3.9,0.7-7.9,1-11.9,0.9c-4.3,0-8.5-0.3-12.7-0.9
			c-0.8-0.2-1.2-0.8-1.2-1.9c0-1.4,1-9.5,1-15.3v-24.2c0-5.8-0.8-10.5-2.3-13.2c0-3.5,3.6-6.7,14.1-6.7c3.6,0,12.3,2,15.3,4.6
			c-1.1,3.3-1.7,7.4-1.7,14.1L381.1,125.3z"/>
		<path class="st1" d="M60.9,15.2c0,8.4-5.7,14.2-12.7,14.2c-4.5,0-7.5-1.2-8.6-2.5c0.7-1.9,1-3.9,1.1-5.9c0-2.9-1.8-5-4.8-5
			c-3.4,0-7.2,6.3-7.2,17.7c0,13.7,3.7,22.5,7.6,22.5c2.7,0,4.2-2.5,4.2-5.7s-0.5-6.3-1.8-6.3c-1.5,0-2.2-2.5-2.2-4.2s1.1-4,2.9-4
			h16.7c4.6,0,7.3,4.7,7.3,11.4c0,14.8-11.5,25-28.8,25C13.1,72.2,0,58.6,0,33.3C0,12.2,18.4,0,37.2,0C49.1,0,60.9,4,60.9,15.2z"/>
		<path class="st1" d="M97.1,31.8c4.1,0,9.2-1.7,11.4-1.7c1.7,0,3.5,2.4,3.5,4.4c0,3.5-1.7,9.9-3.8,9.9c-0.4,0-0.8-0.2-1-0.5
			c-2.3-2-6-2.2-10.1-2.2v13.8c7,0,13.1-3.2,15.7-7.2c0.4-0.2,0.8-0.3,1.2-0.3c2,0,3.6,5.2,3.6,11.2c0,7.3-2.5,10.6-5.1,11
			c-8,0.8-16,1.1-24,1c-6.7,0.1-13.5-0.3-20.1-1c-1-0.1-1.5-0.9-1.5-2.1c0-1.6,1.5-10.6,1.5-17.1V22.5c0-6.5-0.9-12.9-2.6-15.8
			c0-2,2.9-4,7.1-4.6c6-0.8,12.1-1.1,18.2-1c6.2-0.1,12.5,0.2,18.6,1c2.3,0,6.8,3.7,6.8,9.1c0,9.3-3.4,14.6-4.5,14.6
			c-0.9-0.1-1.7-0.5-2.2-1.2c-1.3-1.6-6.8-4.6-12.7-5.3V31.8z"/>
		<path class="st1" d="M155.6,72.3c-24,0-35.4-15.6-35.4-37.8c0-20.1,16-34.5,35.4-34.5c18.7,0,35.2,10.4,35.2,34.5
			C190.8,52.6,179.9,72.3,155.6,72.3z M162.1,37.2c0-13.2-3.7-21.2-7.7-21.2s-5.6,5.6-5.6,17.4c0,15.4,4.4,23.1,8.1,23.1
			C160.1,56.4,162.1,49.8,162.1,37.2z"/>
		<path class="st1" d="M243.2,39.6c5.2,9.4,16.5,22.5,20.2,25.3c0,4.7-9,7.4-14.7,7.4c-5.2,0-10.5-1.3-12.1-2.7
			c-3-2.6-8.8-16.5-11.1-27.4v8.2c0,9.4,1.3,16.1,1.3,18.1c0,0.9-0.9,1.4-1.9,1.7c-1.9,0.5-6.2,1-13.4,1c-4.8,0.1-9.6-0.2-14.4-1
			c-0.9-0.2-1.4-0.9-1.4-2.1c0-1.6,1.1-10.8,1.1-17.3V22.7c0-6.5-0.7-11.9-2.1-14.9c1.4-3.2,8.7-6.8,16.8-6.8h13.9
			c18.5,0,31.8,7.1,31.8,18.6C257.3,29.8,251.2,37.3,243.2,39.6z M225.6,16.7v19.7c4.2-1.8,7-6,7-10.6
			C232.6,21.6,229.8,17.8,225.6,16.7z"/>
		<path class="st1" d="M325.3,15.2c0,8.4-5.7,14.2-12.7,14.2c-4.5,0-7.5-1.2-8.6-2.5c0.7-1.9,1-3.9,1.1-5.9c0-2.9-1.8-5-4.8-5
			c-3.4,0-7.2,6.3-7.2,17.7c0,13.7,3.7,22.5,7.6,22.5c2.7,0,4.2-2.5,4.2-5.7s-0.5-6.3-1.8-6.3c-1.5,0-2.2-2.5-2.2-4.2s1.1-4,2.9-4
			h16.7c4.6,0,7.4,4.7,7.4,11.4c0,14.8-11.5,25-28.8,25c-21.6,0-34.7-13.6-34.7-38.9c0-21.2,18.4-33.4,37.2-33.4
			C313.5,0,325.3,4,325.3,15.2z"/>
		<path class="st1" d="M361.4,31.8c4.1,0,9.2-1.7,11.4-1.7c1.7,0,3.5,2.4,3.5,4.4c0,3.5-1.7,9.9-3.8,9.9c-0.4,0-0.8-0.2-1-0.5
			c-2.3-2-6-2.2-10.1-2.2v13.8c7,0,13.1-3.2,15.7-7.2c0.4-0.2,0.8-0.3,1.2-0.3c2,0,3.6,5.2,3.6,11.2c0,7.3-2.5,10.6-5.1,11
			c-8,0.8-16,1.1-24,1c-6.7,0.1-13.5-0.3-20.1-1c-1-0.1-1.5-0.9-1.5-2.1c0-1.6,1.5-10.6,1.5-17.1V22.5c0-6.5-0.9-12.9-2.6-15.8
			c0-2,2.9-4,7-4.6c6-0.8,12.1-1.1,18.2-1c6.2-0.1,12.4,0.2,18.6,1c2.3,0,6.9,3.7,6.9,9.1c0,9.3-3.4,14.6-4.5,14.6
			c-0.9-0.1-1.6-0.5-2.2-1.2c-1.3-1.6-6.9-4.5-12.7-5.3L361.4,31.8z"/>
	</g>
</g>
</svg>
