<svg xmlns="http://www.w3.org/2000/svg" viewBox="0 0 383.86 145.62"><defs><style>.cls-1{fill:none;stroke:#fff;stroke-miterlimit:10;stroke-width:1.78px;}.cls-2{fill:#fff;}</style></defs><g id="Layer_2" data-name="Layer 2"><g id="Layer_1-2" data-name="Layer 1"><path class="cls-1" d="M36.51,142.85H4.88c-.89,0-1.34-.8-1.34-1.87,0-1.42.81-9.35.81-15.14V99.73c0-5.7-.54-11.41-1.7-14,0-1.69,1.87-4,5.62-4H37.14c9,0,18.62,3.92,18.62,12.92,0,11.14-8.64,15.5-14.53,16.75C48.9,113,57.36,116.48,57.36,127,57.36,137.78,46.67,142.85,36.51,142.85Zm-6.77-33.94c3.3,0,5.35-2.85,5.35-8.65,0-4.45-.72-8.73-5.35-8.73Zm0,25c3.74,0,5.88-3.38,5.88-9.8,0-6.23-1.87-9.35-5.88-9.44Z"/><path class="cls-1" d="M80,81.55c8.82,0,17,4.72,19.25,9.45,1.33,2.85,13.81,41.52,14.88,43.92.62,1.88,2.49,3.93,2.49,5.88s-4.1,2.95-13.54,2.95a88.45,88.45,0,0,1-12.39-.54c-1.6-.27-2.14-.71-2.14-1.69,0-.54.27-1.34.27-2a8,8,0,0,0-.18-1.61l-1.51-4.81H74.29L73,137a7.42,7.42,0,0,0-.53,2.68c0,.71.17,1.87.17,2.31,0,.63-.89,1.34-1.69,1.43a41.11,41.11,0,0,1-5.79.36,44.41,44.41,0,0,1-6.77-.27c-.72-.09-1.34-.36-1.34-1s.62-1.25,1.25-2.68C59.05,138,73,96.16,73.4,94.47A57.3,57.3,0,0,0,75,86.54C75.27,84.05,77.23,81.55,80,81.55Zm.8,25.66-3.65,17.2h7.13Z"/><path class="cls-1" d="M140,125.3c0,8.29,1.07,14.26,1.07,16,0,.8-.71,1.25-1.69,1.51a39.36,39.36,0,0,1-8.47.9,44.06,44.06,0,0,1-9-.9c-.8-.17-1.24-.8-1.24-1.87,0-1.42,1-9.53,1-15.32V102.22c0-5.79-1.07-11.31-2.59-14,0-3.47,3.66-6.68,9.63-6.68s10,1.61,13,4.64l18,21.11v-5.08c0-5.79-.71-11.31-2.31-14,0-3.47,3.38-6.68,10.42-6.68a21.44,21.44,0,0,1,11.94,4.64c-1.07,3.29-1.69,8.28-1.69,15v38.76c0,2.23-2.67,3.84-6.86,3.84a19.54,19.54,0,0,1-9-1.79L140,119.69Z"/><path class="cls-1" d="M211.5,129.85c4.45,0,8.64-4.46,11-7.93a2.83,2.83,0,0,1,1.6-.54c1.78,0,3.21,6.06,3.21,11.41,0,6.32-3.74,11-9.09,11-5.08,0-12.74-.9-16.84-.9h-13.9c-1.34,0-2.32-.62-2.32-1.51,0-3,1-3,1-6.42V98c0-3.57-1.42-7.67-2.85-9,0-5.35,5.35-8.2,13.54-8.2,7.22,0,13.46,1.78,16.31,4.63-1.16,1.52-1.6,4.55-1.6,8.2Z"/><path class="cls-1" d="M249.45,81.55c8.82,0,17,4.72,19.25,9.45,1.33,2.85,13.81,41.52,14.88,43.92.62,1.88,2.49,3.93,2.49,5.88s-4.1,2.95-13.54,2.95a88.45,88.45,0,0,1-12.39-.54c-1.6-.27-2.14-.71-2.14-1.69,0-.54.27-1.34.27-2a8,8,0,0,0-.18-1.61l-1.51-4.81H243.75L242.5,137a7.42,7.42,0,0,0-.53,2.68c0,.71.17,1.87.17,2.31,0,.63-.89,1.34-1.69,1.43a41.11,41.11,0,0,1-5.79.36,44.41,44.41,0,0,1-6.77-.27c-.72-.09-1.34-.36-1.34-1s.62-1.25,1.25-2.68c.71-1.78,14.61-43.66,15.06-45.35a57.3,57.3,0,0,0,1.6-7.93C244.73,84.05,246.69,81.55,249.45,81.55Zm.8,25.66-3.65,17.2h7.13Z"/><path class="cls-1" d="M348,92c0,7-7.39,15-15.95,21.83,6.33,6.77,16.84,20,16.84,23.79,0,4.36-9.88,7.13-19.78,7.13a6.18,6.18,0,0,1-5.61-3.57c-1-3.12-4.19-11.85-7-16.75-.09,0-.09.09-.18.09v.8c0,8.29,1.16,14.26,1.16,16,0,.8-.8,1.25-1.69,1.51a84.43,84.43,0,0,1-24.59,0c-.8-.17-1.25-.8-1.25-1.87,0-1.42,1-9.53,1-15.32V101.42c0-5.79-.8-10.51-2.32-13.19,0-3.47,3.57-6.68,14.08-6.68,5.17,0,12.3,2,15.33,4.64-1.07,3.29-1.7,7.39-1.7,14.07v9.27c3.39-5.17,6.69-12.92,6.69-15.68,0-4-.63-5.88-2-7.4,0-2.49,7.21-4.9,13-4.9C341.31,81.55,348,85.47,348,92Z"/><path class="cls-1" d="M381.14,125.3c0,8.29,1.15,14.26,1.15,16,0,.8-.89,1.34-1.69,1.51a55,55,0,0,1-11.85.9,79.2,79.2,0,0,1-12.74-.9c-.8-.17-1.25-.8-1.25-1.87,0-1.42,1-9.53,1-15.32V101.42c0-5.79-.8-10.51-2.32-13.19,0-3.47,3.57-6.68,14.08-6.68,3.57,0,12.3,2,15.33,4.64-1.07,3.29-1.69,7.39-1.69,14.07Z"/><path class="cls-2" d="M60.91,15.21c0,8.45-5.73,14.19-12.68,14.19-4.53,0-7.45-1.21-8.56-2.52a20.2,20.2,0,0,0,1.11-5.94c0-2.92-1.82-5-4.84-5-3.42,0-7.24,6.34-7.24,17.72,0,13.69,3.72,22.55,7.65,22.55,2.72,0,4.23-2.51,4.23-5.74s-.51-6.34-1.82-6.34c-1.51,0-2.21-2.52-2.21-4.23s1.11-4,2.92-4H56.18c4.63,0,7.35,4.74,7.35,11.38,0,14.8-11.48,25-28.79,25C13.09,72.19,0,58.6,0,33.33,0,12.18,18.42,0,37.15,0,49.13,0,60.91,4,60.91,15.21Z"/><path class="cls-2" d="M97.06,31.82c4.12,0,9.16-1.71,11.37-1.71,1.72,0,3.53,2.41,3.53,4.43,0,3.52-1.71,9.86-3.83,9.86a1.39,1.39,0,0,1-1-.5c-2.32-2-6-2.22-10.07-2.22v13.8c7,0,13.09-3.22,15.7-7.15A2.73,2.73,0,0,1,114,48c2,0,3.63,5.23,3.63,11.17,0,7.35-2.52,10.58-5.14,11a222.15,222.15,0,0,1-24,1,169.46,169.46,0,0,1-20.14-1c-1-.1-1.51-.91-1.51-2.11,0-1.62,1.51-10.58,1.51-17.12V22.55c0-6.54-.91-12.88-2.62-15.8,0-2,2.92-4,7.05-4.63A122.33,122.33,0,0,1,91,1.11a127.79,127.79,0,0,1,18.63,1c2.32,0,6.85,3.72,6.85,9.06,0,9.26-3.42,14.6-4.53,14.6a3.55,3.55,0,0,1-2.22-1.21C108.43,23,102.9,20,97.06,19.23Z"/><path class="cls-2" d="M155.55,72.29c-24,0-35.44-15.6-35.44-37.75,0-20.14,16-34.54,35.44-34.54,18.73,0,35.24,10.37,35.24,34.54C190.79,52.56,179.92,72.29,155.55,72.29Zm6.55-35.14c0-13.19-3.73-21.24-7.66-21.24s-5.63,5.64-5.63,17.42c0,15.4,4.42,23.06,8.15,23.06C160.08,56.39,162.1,49.84,162.1,37.15Z"/><path class="cls-2" d="M243.24,39.57c5.24,9.36,16.52,22.45,20.24,25.27,0,4.74-9,7.45-14.7,7.45-5.23,0-10.47-1.3-12.08-2.71-3-2.62-8.76-16.52-11.08-27.39v8.15c0,9.37,1.31,16.11,1.31,18.13,0,.9-.9,1.41-1.91,1.71-1.91.5-6.24,1-13.39,1a79.33,79.33,0,0,1-14.4-1c-.9-.2-1.41-.91-1.41-2.11,0-1.62,1.11-10.78,1.11-17.32V22.66c0-6.55-.71-11.88-2.12-14.91,1.41-3.22,8.66-6.84,16.82-6.84h13.89c18.53,0,31.82,7.15,31.82,18.62C257.34,29.8,251.2,37.35,243.24,39.57ZM225.62,16.71V36.45a11.51,11.51,0,0,0,7-10.57A9.44,9.44,0,0,0,225.62,16.71Z"/><path class="cls-2" d="M325.3,15.21c0,8.45-5.74,14.19-12.69,14.19-4.53,0-7.45-1.21-8.56-2.52a19.88,19.88,0,0,0,1.11-5.94c0-2.92-1.81-5-4.83-5-3.43,0-7.25,6.34-7.25,17.72,0,13.69,3.72,22.55,7.65,22.55,2.72,0,4.23-2.51,4.23-5.74s-.5-6.34-1.81-6.34c-1.51,0-2.22-2.52-2.22-4.23s1.11-4,2.92-4h16.71c4.64,0,7.36,4.74,7.36,11.38,0,14.8-11.48,25-28.8,25-21.65,0-34.74-13.59-34.74-38.86C264.38,12.18,282.81,0,301.54,0,313.52,0,325.3,4,325.3,15.21Z"/><path class="cls-2" d="M361.44,31.82c4.13,0,9.16-1.71,11.38-1.71,1.71,0,3.52,2.41,3.52,4.43,0,3.52-1.71,9.86-3.83,9.86a1.39,1.39,0,0,1-1-.5c-2.32-2-6-2.22-10.07-2.22v13.8c7.05,0,13.09-3.22,15.71-7.15a2.66,2.66,0,0,1,1.2-.3c2,0,3.63,5.23,3.63,11.17,0,7.35-2.52,10.58-5.14,11a222,222,0,0,1-24,1,169.6,169.6,0,0,1-20.14-1c-1-.1-1.51-.91-1.51-2.11,0-1.62,1.51-10.58,1.51-17.12V22.55c0-6.54-.9-12.88-2.61-15.8,0-2,2.92-4,7-4.63a122.54,122.54,0,0,1,18.23-1,127.73,127.73,0,0,1,18.62,1c2.32,0,6.85,3.72,6.85,9.06,0,9.26-3.42,14.6-4.53,14.6a3.53,3.53,0,0,1-2.21-1.21c-1.31-1.61-6.85-4.53-12.69-5.34Z"/></g></g></svg>