<svg xmlns="http://www.w3.org/2000/svg" viewBox="0 0 597.05 597.05"><defs><style>.cls-1{fill:#10162f;}.cls-2{fill:#66c4ff;}</style></defs><g id="Layer_2" data-name="Layer 2"><g id="_ÎÓÈ_1" data-name="—ÎÓÈ_1"><circle class="cls-1" cx="298.53" cy="298.53" r="298.53"/><path class="cls-2" d="M407.16,171H189.83A18.61,18.61,0,0,0,171,189.39V407.64A18.62,18.62,0,0,0,189.83,426H407.16A18.66,18.66,0,0,0,426,407.64V189.39A18.65,18.65,0,0,0,407.16,171ZM246.65,388.33H208.82V266.62h37.83ZM227.74,250a21.93,21.93,0,1,1,21.92-21.93A21.93,21.93,0,0,1,227.74,250ZM388.33,388.33h-37.8V329.14c0-14.11-.26-32.27-19.66-32.27-19.68,0-22.7,15.38-22.7,31.25v60.21h-37.8V266.62h36.28v16.63h.51c5-9.57,17.39-19.65,35.79-19.65,38.31,0,45.38,25.2,45.38,58Z"/></g></g></svg>