<svg xmlns="http://www.w3.org/2000/svg" viewBox="0 0 988.47 315.12"><defs><style>.cls-1{fill:#fff;}</style></defs><g id="Layer_2" data-name="Layer 2"><g id="Layer_1-2" data-name="Layer 1"><path class="cls-1" d="M140.78,33.12l-1,1a7,7,0,0,1-9.37.27,87.55,87.55,0,0,0-21.91-13.75,74.39,74.39,0,0,0-29.82-6.26q-15.37,0-30.74,8.29A61.88,61.88,0,0,0,24,45a57.26,57.26,0,0,0-8.59,30.43q0,25.49,19.11,44.39t47.82,18.9q21.84,0,37.51-12.23a48,48,0,0,0,16.69-24.23,7,7,0,0,0-6.67-9H99.18a7,7,0,0,1-7-7h0a7,7,0,0,1,7-7h48.37a7,7,0,0,1,6.95,7.63Q152,116,134.26,133.15q-20,19.32-52.37,19.31-37.2,0-59.55-22.85T0,75.93Q0,45.09,22.24,22.55T80.68,0q32.7,0,59.78,22.77A7,7,0,0,1,140.78,33.12Z"/><path class="cls-1" d="M402.08,37.71A73,73,0,0,0,374,10,77.89,77.89,0,0,0,335.35,0,75.54,75.54,0,0,0,297,10.11,73.44,73.44,0,0,0,269.33,38a77.29,77.29,0,0,0-10.11,38.83,74.37,74.37,0,0,0,10.22,38,73.47,73.47,0,0,0,16.43,19.62H191.16a7.07,7.07,0,0,1-7.07-7.08V84.52a7.07,7.07,0,0,1,7.07-7.08h53.7a7.27,7.27,0,0,0,7.37-6.86,7.08,7.08,0,0,0-7.08-7.29h-54a7.07,7.07,0,0,1-7.07-7.08V25.07A7.06,7.06,0,0,1,191.16,18h54.6a7.08,7.08,0,0,0,7.08-7.08v-.2a7.08,7.08,0,0,0-7.08-7.08H176.6a7.08,7.08,0,0,0-7.07,7.08v131a7.08,7.08,0,0,0,7.07,7.07H298.05a127.36,127.36,0,0,1,23.21,2.31,80,80,0,0,0,14.7,1.33,76.13,76.13,0,0,0,38.42-10.11,73.41,73.41,0,0,0,27.8-27.8,76.13,76.13,0,0,0,10.11-38.42A75.52,75.52,0,0,0,402.08,37.71Zm-22.85,83q-17.89,17.58-43.37,17.59a59.2,59.2,0,0,1-43.47-18q-18-18-18-44t17.49-44.08q17.49-18.09,43.58-18.1a59.57,59.57,0,0,1,43.57,18q18.09,18,18.1,44.08Q397.13,103.13,379.23,120.72Z"/><path class="cls-1" d="M429.68,9.2a5.56,5.56,0,0,1,5.56-5.56h23.35q24.27,0,33.17,2.12a40.2,40.2,0,0,1,15.26,7,33.29,33.29,0,0,1,10,12.54,39.09,39.09,0,0,1,3.64,17q0,18.62-13.14,29.22Q497.47,79.61,481,81A5.55,5.55,0,0,0,477.07,90l96.48,112a5.55,5.55,0,0,1-4.39,9h-3.92a5.54,5.54,0,0,1-4.4-2.16L454.2,83.45a5.54,5.54,0,0,0-4.4-2.16h0a5.56,5.56,0,0,0-5.56,5.56V192a5.56,5.56,0,0,1-5.56,5.56h-3.44a5.56,5.56,0,0,1-5.56-5.56Zm14.56,14.15V61.57a5.56,5.56,0,0,0,5.56,5.56h19.51q18.6.21,27.4-5.76t8.8-18.91q0-12.93-8.7-18.8t-26.89-5.87H449.8A5.56,5.56,0,0,0,444.24,23.35Z"/><path class="cls-1" d="M669.77,33.12l-1,1a7,7,0,0,1-9.37.27,87.37,87.37,0,0,0-21.91-13.75,74.36,74.36,0,0,0-29.82-6.26q-15.37,0-30.74,8.29a61.88,61.88,0,0,0-24,22.34,57.26,57.26,0,0,0-8.59,30.43q0,25.49,19.11,44.39t47.82,18.9q21.84,0,37.51-12.23a48,48,0,0,0,16.69-24.23,7,7,0,0,0-6.67-9H628.16a7,7,0,0,1-7-7h0a7,7,0,0,1,7-7h48.38a7,7,0,0,1,6.94,7.63Q681,116,663.25,133.15q-20,19.32-52.37,19.31-37.21,0-59.55-22.85T529,75.93q0-30.84,22.24-53.38T609.66,0q32.7,0,59.78,22.77A7,7,0,0,1,669.77,33.12Z"/><path class="cls-1" d="M705.59,3.64h69.15a7.08,7.08,0,0,1,7.08,7.08v.2A7.08,7.08,0,0,1,774.74,18h-54.6a7.07,7.07,0,0,0-7.07,7.07V56.21a7.08,7.08,0,0,0,7.07,7.08h54a7.08,7.08,0,0,1,7.08,7.08h0a7.07,7.07,0,0,1-7.08,7.07h-54a7.08,7.08,0,0,0-7.07,7.08v42.87a7.08,7.08,0,0,0,7.07,7.08h54a7.07,7.07,0,0,1,7.08,7.07v.21a7.08,7.08,0,0,1-7.08,7.07H705.59a7.08,7.08,0,0,1-7.08-7.07v-131A7.08,7.08,0,0,1,705.59,3.64Z"/><path class="cls-1" d="M276.25,178a8.09,8.09,0,0,1,8.09-8.09H305q22.86,0,34.68,9.2t11.83,26.39A33.68,33.68,0,0,1,346.72,223a32.07,32.07,0,0,1-4.07,5.43A8.14,8.14,0,0,0,344.56,241a40,40,0,0,1,11.06,9.4,35.75,35.75,0,0,1,7.78,23.05q0,18-13.14,29.82t-34,11.83h-32a8.09,8.09,0,0,1-8.09-8.09Zm14.36,14.15v30.33a8.09,8.09,0,0,0,8.09,8.09h.2q19,0,28.31-6.07t9.3-19q0-21.43-29.12-21.44H298.7A8.09,8.09,0,0,0,290.61,192.18Zm0,61.07v39.63A8.09,8.09,0,0,0,298.7,301h9.9q15.57,0,22.95-3.14a27.78,27.78,0,0,0,12-9.7,23.13,23.13,0,0,0,4.65-13.45,26.83,26.83,0,0,0-2.63-12.13,27.55,27.55,0,0,0-7.79-9.3,35.22,35.22,0,0,0-12.33-6.07q-7.19-2-26.79-2h0A8.09,8.09,0,0,0,290.61,253.25Z"/><path class="cls-1" d="M434.57,165.74l65.22,145.41a2.82,2.82,0,0,1-2.58,4H487.8a2.82,2.82,0,0,1-2.56-1.64L463.9,267.22a2.82,2.82,0,0,0-2.56-1.64H402.27a2.81,2.81,0,0,0-2.56,1.65l-21.14,46.25a2.82,2.82,0,0,1-2.56,1.64H366a2.81,2.81,0,0,1-2.56-4l66-145.41a2.8,2.8,0,0,1,2.56-1.65h0A2.81,2.81,0,0,1,434.57,165.74Zm-5.14,36.14-20.48,45a2.82,2.82,0,0,0,2.57,4h40.79a2.82,2.82,0,0,0,2.57-4l-20.32-45A2.82,2.82,0,0,0,429.43,201.88Z"/><path class="cls-1" d="M509.77,312.9V172.16a2.22,2.22,0,0,1,2.22-2.22h0a2.23,2.23,0,0,1,1.68.76l91.89,106a2.22,2.22,0,0,0,3.9-1.46V141.92a2.21,2.21,0,0,1,2.22-2.22h9.92a2.22,2.22,0,0,1,2.22,2.22v171a2.22,2.22,0,0,1-2.22,2.22h0a2.19,2.19,0,0,1-1.67-.76L528.63,209.79a2.22,2.22,0,0,0-3.89,1.46V312.9a2.22,2.22,0,0,1-2.22,2.22H512A2.22,2.22,0,0,1,509.77,312.9Z"/><path class="cls-1" d="M654.75,129h.81a7,7,0,0,1,7,7V294.19a7,7,0,0,0,7,7h41.86a7,7,0,0,1,7,7h0a7,7,0,0,1-7,7H654.75a7,7,0,0,1-7-7V136A7,7,0,0,1,654.75,129Z"/><path class="cls-1" d="M794,165.74l65.21,145.41a2.82,2.82,0,0,1-2.57,4h-9.42a2.82,2.82,0,0,1-2.56-1.64L823.3,267.22a2.83,2.83,0,0,0-2.56-1.64H761.67a2.81,2.81,0,0,0-2.57,1.65L738,313.48a2.82,2.82,0,0,1-2.56,1.64h-10a2.82,2.82,0,0,1-2.57-4l66-145.41a2.81,2.81,0,0,1,2.57-1.65h0A2.82,2.82,0,0,1,794,165.74Zm-5.14,36.14-20.48,45a2.81,2.81,0,0,0,2.56,4H811.7a2.82,2.82,0,0,0,2.57-4l-20.31-45A2.82,2.82,0,0,0,788.83,201.88Z"/><path class="cls-1" d="M875.77,169.94h1.59a6.68,6.68,0,0,1,6.69,6.68v32.24a6.69,6.69,0,0,0,11.27,4.87l44.63-42a6.71,6.71,0,0,1,4.58-1.81h0a6.68,6.68,0,0,1,4.56,11.57l-52.45,49a6.68,6.68,0,0,0-.31,9.47l60,63.92a6.68,6.68,0,0,1-4.87,11.26h-.86a6.72,6.72,0,0,1-4.88-2.1l-50.15-53.35a6.69,6.69,0,0,0-11.56,4.58v44.19a6.68,6.68,0,0,1-6.69,6.68h-1.59a6.68,6.68,0,0,1-6.68-6.68V176.62A6.68,6.68,0,0,1,875.77,169.94Z"/><path class="cls-1" d="M981.19,169.94h0a7.28,7.28,0,0,1,7.28,7.28V307.84a7.28,7.28,0,0,1-7.28,7.28h0a7.28,7.28,0,0,1-7.28-7.28V177.22A7.28,7.28,0,0,1,981.19,169.94Z"/></g></g></svg>