<svg xmlns="http://www.w3.org/2000/svg" viewBox="0 0 597.05 597.05"><defs><style>.cls-1{fill:#10162f;}.cls-2{fill:#66c4ff;}</style></defs><g id="Layer_2" data-name="Layer 2"><g id="_ÎÓÈ_1" data-name="—ÎÓÈ_1"><circle class="cls-1" cx="298.53" cy="298.53" r="298.53"/><path class="cls-2" d="M444.4,208.43a119.86,119.86,0,0,1-34.39,9.4,59.89,59.89,0,0,0,26.32-33,120.83,120.83,0,0,1-38,14.46,59.84,59.84,0,0,0-102,54.36A170.3,170.3,0,0,1,173,191.42,59.48,59.48,0,0,0,191.49,271a59.63,59.63,0,0,1-27.11-7.47c0,.25,0,.5,0,.76a59.69,59.69,0,0,0,48,58.44,59.83,59.83,0,0,1-15.77,2.08,58.89,58.89,0,0,1-11.26-1.07,59.82,59.82,0,0,0,55.91,41.38,120.36,120.36,0,0,1-74.33,25.53,118,118,0,0,1-14.28-.85,169.84,169.84,0,0,0,91.74,26.79c110.1,0,170.3-90.81,170.3-169.56,0-2.57-.06-5.16-.17-7.72A121.17,121.17,0,0,0,444.4,208.43Z"/></g></g></svg>